<?xml version="1.0" encoding="UTF-8" standalone="no"?>
<!DOCTYPE svg PUBLIC "-//W3C//DTD SVG 1.1//EN"
 "http://www.w3.org/Graphics/SVG/1.1/DTD/svg11.dtd">
<!-- Generated by graphviz version 2.30.1 (20201013.1554)
 -->
<!-- Title: G Pages: 1 -->
<svg width="2293pt" height="980pt"
 viewBox="0.00 0.00 2293.00 980.00" xmlns="http://www.w3.org/2000/svg" xmlns:xlink="http://www.w3.org/1999/xlink">
<g id="graph0" class="graph" transform="scale(1 1) rotate(0) translate(4 976)">
<title>G</title>
<polygon fill="white" stroke="white" points="-4,5 -4,-976 2290,-976 2290,5 -4,5"/>
<!-- n1 -->
<g id="node1" class="node"><title>n1</title>
<g id="a_node1"><a xlink:href="http://example.org/LimeTeam" xlink:title="ex:LimeTeam">
<polygon fill="#fed37f" stroke="black" points="452.821,-591.562 379,-604 305.179,-591.562 305.248,-571.438 452.752,-571.438 452.821,-591.562"/>
<text text-anchor="middle" x="379" y="-582.3" font-family="Times,serif" font-size="14.00">ex:LimeTeam</text>
</a>
</g>
</g>
<!-- b1 -->
<g id="node34" class="node"><title>b1</title>
<ellipse fill="gray" stroke="gray" cx="608" cy="-670" rx="1.8" ry="1.8"/>
</g>
<!-- n1&#45;&gt;b1 -->
<g id="edge17" class="edge"><title>n1&#45;&gt;b1</title>
<path fill="none" stroke="#fed37f" d="M411.324,-598.575C470.503,-619.765 591.581,-663.121 606.485,-668.457"/>
<text text-anchor="middle" x="544.5" y="-625.5" font-family="Times,serif" font-size="10.00">actedOnBehalfOf</text>
</g>
<!-- ann1 -->
<g id="node2" class="node"><title>ann1</title>
<polygon fill="none" stroke="gray" points="104.5,-520 -0.5,-520 -0.5,-484 110.5,-484 110.5,-514 104.5,-520"/>
<polyline fill="none" stroke="gray" points="104.5,-520 104.5,-514 "/>
<polyline fill="none" stroke="gray" points="110.5,-514 104.5,-514 "/>
<g id="a_node2_0"><a xlink:href="http://www.w3.org/ns/prov#type" xlink:title="&lt;TABLE&gt;">
<text text-anchor="start" x="10" y="-505.5" font-family="Times,serif" font-size="10.00">prov:type</text>
</a>
</g>
<g id="a_node2_1"><a xlink:href="http://www.w3.org/ns/prov#Group" xlink:title="&lt;TABLE&gt;">
<text text-anchor="start" x="53" y="-505.5" font-family="Times,serif" font-size="10.00">prov:Group</text>
</a>
</g>
<g id="a_node2_2"><a xlink:href="http://schema.org/name" xlink:title="&lt;TABLE&gt;">
<text text-anchor="start" x="10" y="-493" font-family="Times,serif" font-size="10.00">s:name</text>
</a>
</g>
<text text-anchor="start" x="53" y="-493" font-family="Times,serif" font-size="10.00">Lime Team</text>
</g>
<!-- ann1&#45;&gt;n1 -->
<g id="edge1" class="edge"><title>ann1&#45;&gt;n1</title>
<path fill="none" stroke="gray" stroke-dasharray="5,2" d="M75.0527,-520.09C88.3511,-530.465 106.671,-543.015 125,-550 183.13,-572.154 253.487,-580.55 305.399,-583.608"/>
</g>
<!-- n2 -->
<g id="node3" class="node"><title>n2</title>
<g id="a_node3"><a xlink:href="http://example.org/UKLandRegistry" xlink:title="ex:UKLandRegistry">
<polygon fill="#fed37f" stroke="black" points="892.45,-749.562 791,-762 689.55,-749.562 689.644,-729.438 892.356,-729.438 892.45,-749.562"/>
<text text-anchor="middle" x="791" y="-740.3" font-family="Times,serif" font-size="14.00">ex:UKLandRegistry</text>
</a>
</g>
</g>
<!-- ann2 -->
<g id="node4" class="node"><title>ann2</title>
<polygon fill="none" stroke="gray" points="945,-688 811,-688 811,-652 951,-652 951,-682 945,-688"/>
<polyline fill="none" stroke="gray" points="945,-688 945,-682 "/>
<polyline fill="none" stroke="gray" points="951,-682 945,-682 "/>
<g id="a_node4_3"><a xlink:href="http://www.w3.org/ns/prov#type" xlink:title="&lt;TABLE&gt;">
<text text-anchor="start" x="821" y="-673.5" font-family="Times,serif" font-size="10.00">prov:type</text>
</a>
</g>
<g id="a_node4_4"><a xlink:href="http://www.w3.org/ns/prov#Institution" xlink:title="&lt;TABLE&gt;">
<text text-anchor="start" x="864" y="-673.5" font-family="Times,serif" font-size="10.00">prov:Institution</text>
</a>
</g>
<g id="a_node4_5"><a xlink:href="http://schema.org/name" xlink:title="&lt;TABLE&gt;">
<text text-anchor="start" x="821" y="-661" font-family="Times,serif" font-size="10.00">s:name</text>
</a>
</g>
<text text-anchor="start" x="864" y="-661" font-family="Times,serif" font-size="10.00">HM Land Registry</text>
</g>
<!-- ann2&#45;&gt;n2 -->
<g id="edge2" class="edge"><title>ann2&#45;&gt;n2</title>
<path fill="none" stroke="gray" stroke-dasharray="5,2" d="M859.671,-688.063C843.869,-700.705 822.623,-717.702 807.968,-729.426"/>
</g>
<!-- n3 -->
<g id="node5" class="node"><title>n3</title>
<g id="a_node5"><a xlink:href="http://example.org/Qualtrics" xlink:title="ex:Qualtrics">
<polygon fill="#fed37f" stroke="black" points="1852.75,-749.562 1787,-762 1721.25,-749.562 1721.31,-729.438 1852.69,-729.438 1852.75,-749.562"/>
<text text-anchor="middle" x="1787" y="-740.3" font-family="Times,serif" font-size="14.00">ex:Qualtrics</text>
</a>
</g>
</g>
<!-- n16 -->
<g id="node22" class="node"><title>n16</title>
<g id="a_node22"><a xlink:href="http://example.org/CollectionOfIndividualLevelResponses" xlink:title="ex:CollectionOfIndividualLevelResponses">
<polygon fill="#9fb1fc" stroke="#0000ff" points="2047,-846 1803,-846 1803,-810 2047,-810 2047,-846"/>
<text text-anchor="middle" x="1925" y="-824.3" font-family="Times,serif" font-size="14.00">ex:CollectionOfIndividualLevelResponses</text>
</a>
</g>
</g>
<!-- n3&#45;&gt;n16 -->
<g id="edge48" class="edge"><title>n3&#45;&gt;n16</title>
<path fill="none" stroke="#8b0000" d="M1808.87,-757.993C1829.92,-770.502 1862.18,-789.672 1887.36,-804.636"/>
<polygon fill="#8b0000" stroke="#8b0000" points="1885.9,-807.839 1896.29,-809.938 1889.48,-801.821 1885.9,-807.839"/>
<text text-anchor="middle" x="1873.5" y="-783.5" font-family="Times,serif" font-size="10.00" fill="red">used</text>
</g>
<!-- ann3 -->
<g id="node6" class="node"><title>ann3</title>
<polygon fill="none" stroke="gray" points="1815.5,-688 1700.5,-688 1700.5,-652 1821.5,-652 1821.5,-682 1815.5,-688"/>
<polyline fill="none" stroke="gray" points="1815.5,-688 1815.5,-682 "/>
<polyline fill="none" stroke="gray" points="1821.5,-682 1815.5,-682 "/>
<g id="a_node6_6"><a xlink:href="http://www.w3.org/ns/prov#type" xlink:title="&lt;TABLE&gt;">
<text text-anchor="start" x="1711" y="-673.5" font-family="Times,serif" font-size="10.00">prov:type</text>
</a>
</g>
<g id="a_node6_7"><a xlink:href="http://www.w3.org/ns/prov#Software" xlink:title="&lt;TABLE&gt;">
<text text-anchor="start" x="1754" y="-673.5" font-family="Times,serif" font-size="10.00">prov:Software</text>
</a>
</g>
<g id="a_node6_8"><a xlink:href="http://schema.org/name" xlink:title="&lt;TABLE&gt;">
<text text-anchor="start" x="1711" y="-661" font-family="Times,serif" font-size="10.00">s:name</text>
</a>
</g>
<text text-anchor="start" x="1754" y="-661" font-family="Times,serif" font-size="10.00">Qualtrics</text>
</g>
<!-- ann3&#45;&gt;n3 -->
<g id="edge3" class="edge"><title>ann3&#45;&gt;n3</title>
<path fill="none" stroke="gray" stroke-dasharray="5,2" d="M1767.16,-688.063C1771.73,-700.705 1777.86,-717.702 1782.1,-729.426"/>
</g>
<!-- n4 -->
<g id="node7" class="node"><title>n4</title>
<g id="a_node7"><a xlink:href="http://example.org/CitizensRegisteredAddressUK" xlink:title="ex:CitizensRegisteredAddressUK">
<polygon fill="#fed37f" stroke="black" points="2083.03,-959.562 1925,-972 1766.97,-959.562 1767.12,-939.438 2082.88,-939.438 2083.03,-959.562"/>
<text text-anchor="middle" x="1925" y="-950.3" font-family="Times,serif" font-size="14.00">ex:CitizensRegisteredAddressUK</text>
</a>
</g>
</g>
<!-- n5 -->
<g id="node8" class="node"><title>n5</title>
<g id="a_node8"><a xlink:href="http://example.org/VioletTeam" xlink:title="ex:VioletTeam">
<polygon fill="#fed37f" stroke="black" points="1253.25,-591.562 1176,-604 1098.75,-591.562 1098.82,-571.438 1253.18,-571.438 1253.25,-591.562"/>
<text text-anchor="middle" x="1176" y="-582.3" font-family="Times,serif" font-size="14.00">ex:VioletTeam</text>
</a>
</g>
</g>
<!-- b2 -->
<g id="node35" class="node"><title>b2</title>
<ellipse fill="gray" stroke="gray" cx="791" cy="-670" rx="1.8" ry="1.8"/>
</g>
<!-- n5&#45;&gt;b2 -->
<g id="edge19" class="edge"><title>n5&#45;&gt;b2</title>
<path fill="none" stroke="#fed37f" d="M1104.63,-592.594C1010.36,-601.124 850.581,-619.873 802,-652 795.666,-656.188 792.19,-665.411 791.258,-668.191"/>
<text text-anchor="middle" x="922.5" y="-625.5" font-family="Times,serif" font-size="10.00">actedOnBehalfOf</text>
</g>
<!-- ann4 -->
<g id="node9" class="node"><title>ann4</title>
<polygon fill="none" stroke="gray" points="1227,-520 1119,-520 1119,-484 1233,-484 1233,-514 1227,-520"/>
<polyline fill="none" stroke="gray" points="1227,-520 1227,-514 "/>
<polyline fill="none" stroke="gray" points="1233,-514 1227,-514 "/>
<g id="a_node9_9"><a xlink:href="http://www.w3.org/ns/prov#type" xlink:title="&lt;TABLE&gt;">
<text text-anchor="start" x="1129" y="-505.5" font-family="Times,serif" font-size="10.00">prov:type</text>
</a>
</g>
<g id="a_node9_10"><a xlink:href="http://www.w3.org/ns/prov#Group" xlink:title="&lt;TABLE&gt;">
<text text-anchor="start" x="1172" y="-505.5" font-family="Times,serif" font-size="10.00">prov:Group</text>
</a>
</g>
<g id="a_node9_11"><a xlink:href="http://schema.org/name" xlink:title="&lt;TABLE&gt;">
<text text-anchor="start" x="1129" y="-493" font-family="Times,serif" font-size="10.00">s:name</text>
</a>
</g>
<text text-anchor="start" x="1172" y="-493" font-family="Times,serif" font-size="10.00">Violet Team</text>
</g>
<!-- ann4&#45;&gt;n5 -->
<g id="edge4" class="edge"><title>ann4&#45;&gt;n5</title>
<path fill="none" stroke="gray" stroke-dasharray="5,2" d="M1176,-520.39C1176,-535.622 1176,-557.449 1176,-571.425"/>
</g>
<!-- n6 -->
<g id="node10" class="node"><title>n6</title>
<g id="a_node10"><a xlink:href="http://example.org/CollectionInformationRegisteredLandOwnerGENDER" xlink:title="ex:CollectionInformationRegisteredLandOwnerGENDER">
<polygon fill="#9fb1fc" stroke="#0000ff" points="497,-362 167,-362 167,-326 497,-326 497,-362"/>
<text text-anchor="middle" x="332" y="-340.3" font-family="Times,serif" font-size="14.00">ex:CollectionInformationRegisteredLandOwnerGENDER</text>
</a>
</g>
</g>
<!-- b7 -->
<g id="node40" class="node"><title>b7</title>
<ellipse fill="gray" stroke="gray" cx="578" cy="-428" rx="1.8" ry="1.8"/>
</g>
<!-- n6&#45;&gt;b7 -->
<g id="edge32" class="edge"><title>n6&#45;&gt;b7</title>
<path fill="none" stroke="#fed37f" d="M383.27,-362.09C450.86,-384.62 562.868,-421.956 576.605,-426.535"/>
<text text-anchor="middle" x="511" y="-383.5" font-family="Times,serif" font-size="10.00">wasAssociatedWith</text>
</g>
<!-- n7 -->
<g id="node11" class="node"><title>n7</title>
<g id="a_node11"><a xlink:href="http://example.org/VariableTransformation" xlink:title="ex:VariableTransformation">
<polygon fill="#9fb1fc" stroke="#0000ff" points="1205.5,-194 1044.5,-194 1044.5,-158 1205.5,-158 1205.5,-194"/>
<text text-anchor="middle" x="1125" y="-172.3" font-family="Times,serif" font-size="14.00">ex:VariableTransformation</text>
</a>
</g>
</g>
<!-- n14 -->
<g id="node19" class="node"><title>n14</title>
<g id="a_node19"><a xlink:href="http://example.org/AssigningWeights" xlink:title="ex:AssigningWeights">
<polygon fill="#9fb1fc" stroke="#0000ff" points="1318.5,-278 1187.5,-278 1187.5,-242 1318.5,-242 1318.5,-278"/>
<text text-anchor="middle" x="1253" y="-256.3" font-family="Times,serif" font-size="14.00">ex:AssigningWeights</text>
</a>
</g>
</g>
<!-- n7&#45;&gt;n14 -->
<g id="edge40" class="edge"><title>n7&#45;&gt;n14</title>
<path fill="none" stroke="#8b0000" d="M1151.83,-194.19C1170.95,-206.435 1196.83,-223.018 1217.63,-236.343"/>
<polygon fill="#8b0000" stroke="#8b0000" points="1215.89,-239.386 1226.2,-241.833 1219.67,-233.491 1215.89,-239.386"/>
<text text-anchor="middle" x="1205.5" y="-215.5" font-family="Times,serif" font-size="10.00" fill="red">used</text>
</g>
<!-- ann5 -->
<g id="node12" class="node"><title>ann5</title>
<polygon fill="none" stroke="gray" points="1184,-110 1028,-110 1028,-74 1190,-74 1190,-104 1184,-110"/>
<polyline fill="none" stroke="gray" points="1184,-110 1184,-104 "/>
<polyline fill="none" stroke="gray" points="1190,-104 1184,-104 "/>
<g id="a_node12_12"><a xlink:href="http://www.w3.org/ns/prov#label" xlink:title="&lt;TABLE&gt;">
<text text-anchor="start" x="1038" y="-95.5" font-family="Times,serif" font-size="10.00">prov:label</text>
</a>
</g>
<text text-anchor="start" x="1083" y="-95.5" font-family="Times,serif" font-size="10.00">Variable transformation</text>
<g id="a_node12_13"><a xlink:href="http://www.w3.org/ns/prov#type" xlink:title="&lt;TABLE&gt;">
<text text-anchor="start" x="1038" y="-83" font-family="Times,serif" font-size="10.00">prov:type</text>
</a>
</g>
<g id="a_node12_14"><a xlink:href="http://example.org/Calculation" xlink:title="&lt;TABLE&gt;">
<text text-anchor="start" x="1083" y="-83" font-family="Times,serif" font-size="10.00">ex:Calculation</text>
</a>
</g>
</g>
<!-- ann5&#45;&gt;n7 -->
<g id="edge5" class="edge"><title>ann5&#45;&gt;n7</title>
<path fill="none" stroke="gray" stroke-dasharray="5,2" d="M1112.39,-110.39C1115.13,-124.4 1118.95,-143.989 1121.67,-157.916"/>
</g>
<!-- n8 -->
<g id="node13" class="node"><title>n8</title>
<g id="a_node13"><a xlink:href="http://example.org/CollectionInformationOwnedLandLOCATION" xlink:title="ex:CollectionInformationOwnedLandLOCATION">
<polygon fill="#9fb1fc" stroke="#0000ff" points="1736.5,-362 1449.5,-362 1449.5,-326 1736.5,-326 1736.5,-362"/>
<text text-anchor="middle" x="1593" y="-340.3" font-family="Times,serif" font-size="14.00">ex:CollectionInformationOwnedLandLOCATION</text>
</a>
</g>
</g>
<!-- b5 -->
<g id="node38" class="node"><title>b5</title>
<ellipse fill="gray" stroke="gray" cx="1593" cy="-428" rx="1.8" ry="1.8"/>
</g>
<!-- n8&#45;&gt;b5 -->
<g id="edge28" class="edge"><title>n8&#45;&gt;b5</title>
<path fill="none" stroke="#fed37f" d="M1593,-362.39C1593,-384.204 1593,-419.544 1593,-425.978"/>
<text text-anchor="middle" x="1634" y="-383.5" font-family="Times,serif" font-size="10.00">wasAssociatedWith</text>
</g>
<!-- n9 -->
<g id="node14" class="node"><title>n9</title>
<g id="a_node14"><a xlink:href="http://example.org/CollectionInformationHouseholdINCOME" xlink:title="ex:CollectionInformationHouseholdINCOME">
<polygon fill="#9fb1fc" stroke="#0000ff" points="781,-362 515,-362 515,-326 781,-326 781,-362"/>
<text text-anchor="middle" x="648" y="-340.3" font-family="Times,serif" font-size="14.00">ex:CollectionInformationHouseholdINCOME</text>
</a>
</g>
</g>
<!-- b10 -->
<g id="node43" class="node"><title>b10</title>
<ellipse fill="gray" stroke="gray" cx="659" cy="-428" rx="1.8" ry="1.8"/>
</g>
<!-- n9&#45;&gt;b10 -->
<g id="edge38" class="edge"><title>n9&#45;&gt;b10</title>
<path fill="none" stroke="#fed37f" d="M650.333,-362.39C653.259,-384.204 658,-419.544 658.863,-425.978"/>
<text text-anchor="middle" x="696" y="-383.5" font-family="Times,serif" font-size="10.00">wasAssociatedWith</text>
</g>
<!-- n10 -->
<g id="node15" class="node"><title>n10</title>
<g id="a_node15"><a xlink:href="http://example.org/CollectionInformationParentalHigherEDUCATION" xlink:title="ex:CollectionInformationParentalHigherEDUCATION">
<polygon fill="#9fb1fc" stroke="#0000ff" points="1110.5,-362 799.5,-362 799.5,-326 1110.5,-326 1110.5,-362"/>
<text text-anchor="middle" x="955" y="-340.3" font-family="Times,serif" font-size="14.00">ex:CollectionInformationParentalHigherEDUCATION</text>
</a>
</g>
</g>
<!-- b3 -->
<g id="node36" class="node"><title>b3</title>
<ellipse fill="gray" stroke="gray" cx="903" cy="-428" rx="1.8" ry="1.8"/>
</g>
<!-- n10&#45;&gt;b3 -->
<g id="edge24" class="edge"><title>n10&#45;&gt;b3</title>
<path fill="none" stroke="#fed37f" d="M943.972,-362.39C930.139,-384.204 907.728,-419.544 903.648,-425.978"/>
<text text-anchor="middle" x="974" y="-383.5" font-family="Times,serif" font-size="10.00">wasAssociatedWith</text>
</g>
<!-- n11 -->
<g id="node16" class="node"><title>n11</title>
<g id="a_node16"><a xlink:href="http://example.org/CollectionInformationCurrentPropertyVALUE" xlink:title="ex:CollectionInformationCurrentPropertyVALUE">
<polygon fill="#9fb1fc" stroke="#0000ff" points="2039,-362 1755,-362 1755,-326 2039,-326 2039,-362"/>
<text text-anchor="middle" x="1897" y="-340.3" font-family="Times,serif" font-size="14.00">ex:CollectionInformationCurrentPropertyVALUE</text>
</a>
</g>
</g>
<!-- b8 -->
<g id="node41" class="node"><title>b8</title>
<ellipse fill="gray" stroke="gray" cx="1620" cy="-428" rx="1.8" ry="1.8"/>
</g>
<!-- n11&#45;&gt;b8 -->
<g id="edge34" class="edge"><title>n11&#45;&gt;b8</title>
<path fill="none" stroke="#fed37f" d="M1815.31,-362.02C1743.25,-377.523 1647.34,-399.544 1632,-410 1625.55,-414.395 1621.44,-423.476 1620.32,-426.207"/>
<text text-anchor="middle" x="1769" y="-383.5" font-family="Times,serif" font-size="10.00">wasAssociatedWith</text>
</g>
<!-- n12 -->
<g id="node17" class="node"><title>n12</title>
<g id="a_node17"><a xlink:href="http://example.org/CollectionLandRegisteredLENGHT" xlink:title="ex:CollectionLandRegisteredLENGHT">
<polygon fill="#9fb1fc" stroke="#0000ff" points="2285,-362 2057,-362 2057,-326 2285,-326 2285,-362"/>
<text text-anchor="middle" x="2171" y="-340.3" font-family="Times,serif" font-size="14.00">ex:CollectionLandRegisteredLENGHT</text>
</a>
</g>
</g>
<!-- b9 -->
<g id="node42" class="node"><title>b9</title>
<ellipse fill="gray" stroke="gray" cx="1643" cy="-428" rx="1.8" ry="1.8"/>
</g>
<!-- n12&#45;&gt;b9 -->
<g id="edge36" class="edge"><title>n12&#45;&gt;b9</title>
<path fill="none" stroke="#fed37f" d="M2056.76,-360.829C2053.81,-361.225 2050.88,-361.616 2048,-362 1944.07,-375.844 1918.1,-379.472 1814,-392 1778.48,-396.275 1684.42,-391.169 1654,-410 1647.54,-413.996 1644.15,-423.351 1643.25,-426.177"/>
<text text-anchor="middle" x="1952" y="-383.5" font-family="Times,serif" font-size="10.00">wasAssociatedWith</text>
</g>
<!-- n13 -->
<g id="node18" class="node"><title>n13</title>
<g id="a_node18"><a xlink:href="http://example.org/SurveyResponse" xlink:title="ex:SurveyResponse">
<polygon fill="#9fb1fc" stroke="#0000ff" points="1665.5,-688 1544.5,-688 1544.5,-652 1665.5,-652 1665.5,-688"/>
<text text-anchor="middle" x="1605" y="-666.3" font-family="Times,serif" font-size="14.00">ex:SurveyResponse</text>
</a>
</g>
</g>
<!-- n14&#45;&gt;n1 -->
<g id="edge13" class="edge"><title>n14&#45;&gt;n1</title>
<path fill="none" stroke="darkgreen" d="M1187.72,-262.378C966.386,-267.393 252.879,-286.489 158,-326 147.54,-330.356 139,-331.669 139,-343 139,-343 139,-343 139,-503 139,-536.994 226.309,-559.812 295.607,-572.568"/>
<polygon fill="darkgreen" stroke="darkgreen" points="295.227,-576.056 305.688,-574.378 296.464,-569.166 295.227,-576.056"/>
<text text-anchor="middle" x="174" y="-425.5" font-family="Times,serif" font-size="10.00" fill="darkgreen">wasGeneratedBy</text>
</g>
<!-- n14&#45;&gt;n8 -->
<g id="edge41" class="edge"><title>n14&#45;&gt;n8</title>
<path fill="none" stroke="#8b0000" d="M1318.56,-276.81C1373.83,-290.141 1453.15,-309.271 1512.31,-323.54"/>
<polygon fill="#8b0000" stroke="#8b0000" points="1511.83,-327.024 1522.37,-325.966 1513.47,-320.219 1511.83,-327.024"/>
<text text-anchor="middle" x="1452.5" y="-299.5" font-family="Times,serif" font-size="10.00" fill="red">used</text>
</g>
<!-- n14&#45;&gt;n11 -->
<g id="edge42" class="edge"><title>n14&#45;&gt;n11</title>
<path fill="none" stroke="#8b0000" d="M1318.29,-269.314C1419.68,-282.224 1617.43,-307.402 1753.31,-324.704"/>
<polygon fill="#8b0000" stroke="#8b0000" points="1753.03,-328.196 1763.39,-325.987 1753.91,-321.252 1753.03,-328.196"/>
<text text-anchor="middle" x="1622.5" y="-299.5" font-family="Times,serif" font-size="10.00" fill="red">used</text>
</g>
<!-- n14&#45;&gt;n10 -->
<g id="edge47" class="edge"><title>n14&#45;&gt;n10</title>
<path fill="none" stroke="#8b0000" d="M1190.89,-278.09C1143.08,-291.247 1076.91,-309.454 1026.82,-323.237"/>
<polygon fill="#8b0000" stroke="#8b0000" points="1025.74,-319.904 1017.03,-325.932 1027.6,-326.653 1025.74,-319.904"/>
<text text-anchor="middle" x="1130.5" y="-299.5" font-family="Times,serif" font-size="10.00" fill="red">used</text>
</g>
<!-- n14&#45;&gt;n9 -->
<g id="edge49" class="edge"><title>n14&#45;&gt;n9</title>
<path fill="none" stroke="#8b0000" d="M1187.68,-269.853C1091.52,-282.887 909.654,-307.536 783.788,-324.596"/>
<polygon fill="#8b0000" stroke="#8b0000" points="783.127,-321.153 773.688,-325.965 784.068,-328.09 783.127,-321.153"/>
<text text-anchor="middle" x="996.5" y="-299.5" font-family="Times,serif" font-size="10.00" fill="red">used</text>
</g>
<!-- n14&#45;&gt;n12 -->
<g id="edge50" class="edge"><title>n14&#45;&gt;n12</title>
<path fill="none" stroke="#8b0000" d="M1318.3,-265.101C1452.62,-273.806 1769.82,-295.748 2046.54,-325.872"/>
<polygon fill="#8b0000" stroke="#8b0000" points="2046.46,-329.384 2056.78,-326.993 2047.22,-322.426 2046.46,-329.384"/>
<text text-anchor="middle" x="1861.5" y="-299.5" font-family="Times,serif" font-size="10.00" fill="red">used</text>
</g>
<!-- ann6 -->
<g id="node20" class="node"><title>ann6</title>
<polygon fill="none" stroke="gray" points="1362,-194 1224,-194 1224,-158 1368,-158 1368,-188 1362,-194"/>
<polyline fill="none" stroke="gray" points="1362,-194 1362,-188 "/>
<polyline fill="none" stroke="gray" points="1368,-188 1362,-188 "/>
<g id="a_node20_15"><a xlink:href="http://www.w3.org/ns/prov#label" xlink:title="&lt;TABLE&gt;">
<text text-anchor="start" x="1234" y="-179.5" font-family="Times,serif" font-size="10.00">prov:label</text>
</a>
</g>
<text text-anchor="start" x="1279" y="-179.5" font-family="Times,serif" font-size="10.00">Weight calculation</text>
<g id="a_node20_16"><a xlink:href="http://www.w3.org/ns/prov#type" xlink:title="&lt;TABLE&gt;">
<text text-anchor="start" x="1234" y="-167" font-family="Times,serif" font-size="10.00">prov:type</text>
</a>
</g>
<g id="a_node20_17"><a xlink:href="http://example.org/Calculation" xlink:title="&lt;TABLE&gt;">
<text text-anchor="start" x="1279" y="-167" font-family="Times,serif" font-size="10.00">ex:Calculation</text>
</a>
</g>
</g>
<!-- ann6&#45;&gt;n14 -->
<g id="edge6" class="edge"><title>ann6&#45;&gt;n14</title>
<path fill="none" stroke="gray" stroke-dasharray="5,2" d="M1286.88,-194.39C1279.53,-208.4 1269.26,-227.989 1261.96,-241.916"/>
</g>
<!-- n15 -->
<g id="node21" class="node"><title>n15</title>
<g id="a_node21"><a xlink:href="http://example.org/CollectionInformationRegisteredLandOwnerAGE" xlink:title="ex:CollectionInformationRegisteredLandOwnerAGE">
<polygon fill="#9fb1fc" stroke="#0000ff" points="1431,-362 1129,-362 1129,-326 1431,-326 1431,-362"/>
<text text-anchor="middle" x="1280" y="-340.3" font-family="Times,serif" font-size="14.00">ex:CollectionInformationRegisteredLandOwnerAGE</text>
</a>
</g>
</g>
<!-- b4 -->
<g id="node37" class="node"><title>b4</title>
<ellipse fill="gray" stroke="gray" cx="1130" cy="-428" rx="1.8" ry="1.8"/>
</g>
<!-- n15&#45;&gt;b4 -->
<g id="edge26" class="edge"><title>n15&#45;&gt;b4</title>
<path fill="none" stroke="#fed37f" d="M1248.56,-362.19C1207.66,-384.544 1140.34,-421.35 1131.07,-426.415"/>
<text text-anchor="middle" x="1254" y="-383.5" font-family="Times,serif" font-size="10.00">wasAssociatedWith</text>
</g>
<!-- b6 -->
<g id="node39" class="node"><title>b6</title>
<ellipse fill="gray" stroke="gray" cx="1925" cy="-896" rx="1.8" ry="1.8"/>
</g>
<!-- n16&#45;&gt;b6 -->
<g id="edge30" class="edge"><title>n16&#45;&gt;b6</title>
<path fill="none" stroke="#fed37f" d="M1925,-846.341C1925,-863.451 1925,-887.873 1925,-893.711"/>
<text text-anchor="middle" x="1966" y="-867.5" font-family="Times,serif" font-size="10.00">wasAssociatedWith</text>
</g>
<!-- ann7 -->
<g id="node23" class="node"><title>ann7</title>
<polygon fill="none" stroke="gray" points="2087.5,-762 1870.5,-762 1870.5,-726 2093.5,-726 2093.5,-756 2087.5,-762"/>
<polyline fill="none" stroke="gray" points="2087.5,-762 2087.5,-756 "/>
<polyline fill="none" stroke="gray" points="2093.5,-756 2087.5,-756 "/>
<g id="a_node23_18"><a xlink:href="http://www.w3.org/ns/prov#label" xlink:title="&lt;TABLE&gt;">
<text text-anchor="start" x="1881" y="-747.5" font-family="Times,serif" font-size="10.00">prov:label</text>
</a>
</g>
<text text-anchor="start" x="1926" y="-747.5" font-family="Times,serif" font-size="10.00">Collection of indiviual&#45;level responses</text>
<g id="a_node23_19"><a xlink:href="http://www.w3.org/ns/prov#type" xlink:title="&lt;TABLE&gt;">
<text text-anchor="start" x="1881" y="-735" font-family="Times,serif" font-size="10.00">prov:type</text>
</a>
</g>
<g id="a_node23_20"><a xlink:href="http://example.org/Collection" xlink:title="&lt;TABLE&gt;">
<text text-anchor="start" x="1926" y="-735" font-family="Times,serif" font-size="10.00">ex:Collection</text>
</a>
</g>
</g>
<!-- ann7&#45;&gt;n16 -->
<g id="edge7" class="edge"><title>ann7&#45;&gt;n16</title>
<path fill="none" stroke="gray" stroke-dasharray="5,2" d="M1969.91,-762.39C1960.17,-776.4 1946.56,-795.989 1936.88,-809.916"/>
</g>
<!-- n17 -->
<g id="node24" class="node"><title>n17</title>
<g id="a_node24"><a xlink:href="http://example.org/MetadataLime" xlink:title="ex:MetadataLime">
<ellipse fill="#fffc87" stroke="#808080" cx="379" cy="-502" rx="73.387" ry="18"/>
<text text-anchor="middle" x="379" y="-498.3" font-family="Times,serif" font-size="14.00">ex:MetadataLime</text>
</a>
</g>
</g>
<!-- n17&#45;&gt;n1 -->
<g id="edge23" class="edge"><title>n17&#45;&gt;n1</title>
<path fill="none" stroke="#fed37f" d="M379,-520.39C379,-532.29 379,-548.215 379,-561.277"/>
<polygon fill="#fed37f" stroke="#fed37f" points="375.5,-561.425 379,-571.425 382.5,-561.425 375.5,-561.425"/>
<text text-anchor="middle" x="414" y="-541.5" font-family="Times,serif" font-size="10.00">wasAttributedTo</text>
</g>
<!-- ann8 -->
<g id="node25" class="node"><title>ann8</title>
<polygon fill="none" stroke="gray" points="423.5,-446 328.5,-446 328.5,-410 429.5,-410 429.5,-440 423.5,-446"/>
<polyline fill="none" stroke="gray" points="423.5,-446 423.5,-440 "/>
<polyline fill="none" stroke="gray" points="429.5,-440 423.5,-440 "/>
<g id="a_node25_21"><a xlink:href="http://www.w3.org/ns/prov#type" xlink:title="&lt;TABLE&gt;">
<text text-anchor="start" x="339" y="-425.5" font-family="Times,serif" font-size="10.00">prov:type</text>
</a>
</g>
<g id="a_node25_22"><a xlink:href="http://schema.org/Metada" xlink:title="&lt;TABLE&gt;">
<text text-anchor="start" x="382" y="-425.5" font-family="Times,serif" font-size="10.00">s:Metada</text>
</a>
</g>
</g>
<!-- ann8&#45;&gt;n17 -->
<g id="edge8" class="edge"><title>ann8&#45;&gt;n17</title>
<path fill="none" stroke="gray" stroke-dasharray="5,2" d="M379,-446.063C379,-457.374 379,-472.172 379,-483.559"/>
</g>
<!-- n18 -->
<g id="node26" class="node"><title>n18</title>
<g id="a_node26"><a xlink:href="http://example.org/SurveyAboutLandOwnershipInUK" xlink:title="ex:SurveyAboutLandOwnershipInUK">
<ellipse fill="#fffc87" stroke="#808080" cx="1605" cy="-586" rx="143.775" ry="18"/>
<text text-anchor="middle" x="1605" y="-582.3" font-family="Times,serif" font-size="14.00">ex:SurveyAboutLandOwnershipInUK</text>
</a>
</g>
</g>
<!-- n18&#45;&gt;n13 -->
<g id="edge43" class="edge"><title>n18&#45;&gt;n13</title>
<path fill="none" stroke="#8b0000" d="M1605,-604.39C1605,-615.226 1605,-629.399 1605,-641.709"/>
<polygon fill="#8b0000" stroke="#8b0000" points="1601.5,-641.916 1605,-651.916 1608.5,-641.916 1601.5,-641.916"/>
<text text-anchor="middle" x="1614.5" y="-625.5" font-family="Times,serif" font-size="10.00" fill="red">used</text>
</g>
<!-- b11 -->
<g id="node44" class="node"><title>b11</title>
<ellipse fill="gray" stroke="gray" cx="1841" cy="-670" rx="1.8" ry="1.8"/>
</g>
<!-- n18&#45;&gt;b11 -->
<g id="edge44" class="edge"><title>n18&#45;&gt;b11</title>
<path fill="none" stroke="#8b0000" d="M1701.82,-599.359C1744.31,-608.518 1792.87,-624.422 1830,-652 1836.1,-656.528 1839.74,-665.517 1840.72,-668.216"/>
<text text-anchor="middle" x="1806.5" y="-625.5" font-family="Times,serif" font-size="10.00" fill="red">used</text>
</g>
<!-- ann9 -->
<g id="node27" class="node"><title>ann9</title>
<polygon fill="none" stroke="gray" points="1898,-520 1806,-520 1806,-484 1904,-484 1904,-514 1898,-520"/>
<polyline fill="none" stroke="gray" points="1898,-520 1898,-514 "/>
<polyline fill="none" stroke="gray" points="1904,-514 1898,-514 "/>
<g id="a_node27_23"><a xlink:href="http://www.w3.org/ns/prov#type" xlink:title="&lt;TABLE&gt;">
<text text-anchor="start" x="1816" y="-499.5" font-family="Times,serif" font-size="10.00">prov:type</text>
</a>
</g>
<g id="a_node27_24"><a xlink:href="http://schema.org/Survey" xlink:title="&lt;TABLE&gt;">
<text text-anchor="start" x="1859" y="-499.5" font-family="Times,serif" font-size="10.00">s:Survey</text>
</a>
</g>
</g>
<!-- ann9&#45;&gt;n18 -->
<g id="edge9" class="edge"><title>ann9&#45;&gt;n18</title>
<path fill="none" stroke="gray" stroke-dasharray="5,2" d="M1805.91,-519.103C1761.97,-533.515 1697.89,-554.533 1653.98,-568.934"/>
</g>
<!-- n19 -->
<g id="node28" class="node"><title>n19</title>
<g id="a_node28"><a xlink:href="http://example.org/WealthIndicator" xlink:title="ex:WealthIndicator">
<ellipse fill="#fffc87" stroke="#808080" cx="1286" cy="-92" rx="77.9862" ry="18"/>
<text text-anchor="middle" x="1286" y="-88.3" font-family="Times,serif" font-size="14.00">ex:WealthIndicator</text>
</a>
</g>
</g>
<!-- n19&#45;&gt;n7 -->
<g id="edge16" class="edge"><title>n19&#45;&gt;n7</title>
<path fill="none" stroke="darkgreen" d="M1255.34,-108.617C1230.5,-121.266 1195.23,-139.231 1167.64,-153.283"/>
<polygon fill="darkgreen" stroke="darkgreen" points="1165.93,-150.227 1158.6,-157.885 1169.1,-156.465 1165.93,-150.227"/>
<text text-anchor="middle" x="1250" y="-131.5" font-family="Times,serif" font-size="10.00" fill="darkgreen">wasGeneratedBy</text>
</g>
<!-- ann10 -->
<g id="node29" class="node"><title>ann10</title>
<polygon fill="none" stroke="gray" points="1333.5,-36 1232.5,-36 1232.5,-0 1339.5,-0 1339.5,-30 1333.5,-36"/>
<polyline fill="none" stroke="gray" points="1333.5,-36 1333.5,-30 "/>
<polyline fill="none" stroke="gray" points="1339.5,-30 1333.5,-30 "/>
<g id="a_node29_25"><a xlink:href="http://www.w3.org/ns/prov#type" xlink:title="&lt;TABLE&gt;">
<text text-anchor="start" x="1243" y="-15.5" font-family="Times,serif" font-size="10.00">prov:type</text>
</a>
</g>
<g id="a_node29_26"><a xlink:href="http://schema.org/Indicator" xlink:title="&lt;TABLE&gt;">
<text text-anchor="start" x="1286" y="-15.5" font-family="Times,serif" font-size="10.00">s:Indicator</text>
</a>
</g>
</g>
<!-- ann10&#45;&gt;n19 -->
<g id="edge10" class="edge"><title>ann10&#45;&gt;n19</title>
<path fill="none" stroke="gray" stroke-dasharray="5,2" d="M1286,-36.063C1286,-47.374 1286,-62.1718 1286,-73.5593"/>
</g>
<!-- n20 -->
<g id="node30" class="node"><title>n20</title>
<g id="a_node30"><a xlink:href="http://example.org/RegisteredLandOwnershipInformationDataset" xlink:title="ex:RegisteredLandOwnershipInformationDataset">
<ellipse fill="#fffc87" stroke="#808080" cx="1605" cy="-502" rx="183.068" ry="18"/>
<text text-anchor="middle" x="1605" y="-498.3" font-family="Times,serif" font-size="14.00">ex:RegisteredLandOwnershipInformationDataset</text>
</a>
</g>
</g>
<!-- n20&#45;&gt;n18 -->
<g id="edge15" class="edge"><title>n20&#45;&gt;n18</title>
<path fill="none" stroke="darkgreen" d="M1605,-520.39C1605,-531.226 1605,-545.399 1605,-557.709"/>
<polygon fill="darkgreen" stroke="darkgreen" points="1601.5,-557.916 1605,-567.916 1608.5,-557.916 1601.5,-557.916"/>
<text text-anchor="middle" x="1640" y="-541.5" font-family="Times,serif" font-size="10.00" fill="darkgreen">wasGeneratedBy</text>
</g>
<!-- n20&#45;&gt;n5 -->
<g id="edge22" class="edge"><title>n20&#45;&gt;n5</title>
<path fill="none" stroke="#fed37f" d="M1525.31,-518.231C1448.9,-532.837 1334.11,-554.779 1257.2,-569.48"/>
<polygon fill="#fed37f" stroke="#fed37f" points="1256.24,-566.1 1247.07,-571.415 1257.55,-572.975 1256.24,-566.1"/>
<text text-anchor="middle" x="1451" y="-541.5" font-family="Times,serif" font-size="10.00">wasAttributedTo</text>
</g>
<!-- ann11 -->
<g id="node31" class="node"><title>ann11</title>
<polygon fill="none" stroke="gray" points="1757.5,-446 1662.5,-446 1662.5,-410 1763.5,-410 1763.5,-440 1757.5,-446"/>
<polyline fill="none" stroke="gray" points="1757.5,-446 1757.5,-440 "/>
<polyline fill="none" stroke="gray" points="1763.5,-440 1757.5,-440 "/>
<g id="a_node31_27"><a xlink:href="http://www.w3.org/ns/prov#type" xlink:title="&lt;TABLE&gt;">
<text text-anchor="start" x="1673" y="-425.5" font-family="Times,serif" font-size="10.00">prov:type</text>
</a>
</g>
<g id="a_node31_28"><a xlink:href="http://schema.org/Dataset" xlink:title="&lt;TABLE&gt;">
<text text-anchor="start" x="1716" y="-425.5" font-family="Times,serif" font-size="10.00">s:Dataset</text>
</a>
</g>
</g>
<!-- ann11&#45;&gt;n20 -->
<g id="edge11" class="edge"><title>ann11&#45;&gt;n20</title>
<path fill="none" stroke="gray" stroke-dasharray="5,2" d="M1687.41,-446.063C1670.19,-457.54 1647.59,-472.608 1630.41,-484.059"/>
</g>
<!-- n21 -->
<g id="node32" class="node"><title>n21</title>
<g id="a_node32"><a xlink:href="http://example.org/DemographicDatasetRegisteredLandOwners" xlink:title="ex:DemographicDatasetRegisteredLandOwners">
<ellipse fill="#fffc87" stroke="#808080" cx="750" cy="-502" rx="178.969" ry="18"/>
<text text-anchor="middle" x="750" y="-498.3" font-family="Times,serif" font-size="14.00">ex:DemographicDatasetRegisteredLandOwners</text>
</a>
</g>
</g>
<!-- n21&#45;&gt;n18 -->
<g id="edge14" class="edge"><title>n21&#45;&gt;n18</title>
<path fill="none" stroke="darkgreen" d="M874.324,-514.924C1037.87,-530.608 1323.36,-557.989 1484.82,-573.474"/>
<polygon fill="darkgreen" stroke="darkgreen" points="1484.5,-576.96 1494.79,-574.43 1485.17,-569.992 1484.5,-576.96"/>
<text text-anchor="middle" x="1263" y="-541.5" font-family="Times,serif" font-size="10.00" fill="darkgreen">wasGeneratedBy</text>
</g>
<!-- n21&#45;&gt;n1 -->
<g id="edge21" class="edge"><title>n21&#45;&gt;n1</title>
<path fill="none" stroke="#fed37f" d="M679.344,-518.617C613.653,-533.136 516.283,-554.657 450.365,-569.227"/>
<polygon fill="#fed37f" stroke="#fed37f" points="449.479,-565.838 440.47,-571.414 450.99,-572.673 449.479,-565.838"/>
<text text-anchor="middle" x="622" y="-541.5" font-family="Times,serif" font-size="10.00">wasAttributedTo</text>
</g>
<!-- ann12 -->
<g id="node33" class="node"><title>ann12</title>
<polygon fill="none" stroke="gray" points="794.5,-446 699.5,-446 699.5,-410 800.5,-410 800.5,-440 794.5,-446"/>
<polyline fill="none" stroke="gray" points="794.5,-446 794.5,-440 "/>
<polyline fill="none" stroke="gray" points="800.5,-440 794.5,-440 "/>
<g id="a_node33_29"><a xlink:href="http://www.w3.org/ns/prov#type" xlink:title="&lt;TABLE&gt;">
<text text-anchor="start" x="710" y="-425.5" font-family="Times,serif" font-size="10.00">prov:type</text>
</a>
</g>
<g id="a_node33_30"><a xlink:href="http://schema.org/Dataset" xlink:title="&lt;TABLE&gt;">
<text text-anchor="start" x="753" y="-425.5" font-family="Times,serif" font-size="10.00">s:Dataset</text>
</a>
</g>
</g>
<!-- ann12&#45;&gt;n21 -->
<g id="edge12" class="edge"><title>ann12&#45;&gt;n21</title>
<path fill="none" stroke="gray" stroke-dasharray="5,2" d="M750,-446.063C750,-457.374 750,-472.172 750,-483.559"/>
</g>
<!-- b1&#45;&gt;n2 -->
<g id="edge18" class="edge"><title>b1&#45;&gt;n2</title>
<path fill="none" stroke="#fed37f" d="M609.169,-671.46C619.521,-675.533 696.343,-705.758 746.766,-725.597"/>
<polygon fill="#fed37f" stroke="#fed37f" points="745.575,-728.889 756.162,-729.293 748.138,-722.375 745.575,-728.889"/>
</g>
<!-- b2&#45;&gt;n2 -->
<g id="edge20" class="edge"><title>b2&#45;&gt;n2</title>
<path fill="none" stroke="#fed37f" d="M791,-671.809C791,-676.48 791,-700.459 791,-719.314"/>
<polygon fill="#fed37f" stroke="#fed37f" points="787.5,-719.373 791,-729.373 794.5,-719.373 787.5,-719.373"/>
</g>
<!-- b3&#45;&gt;n21 -->
<g id="edge25" class="edge"><title>b3&#45;&gt;n21</title>
<path fill="none" stroke="#fed37f" d="M901.677,-429.622C892.364,-434.005 835.815,-460.616 794.483,-480.067"/>
<polygon fill="#fed37f" stroke="#fed37f" points="792.95,-476.92 785.393,-484.345 795.931,-483.254 792.95,-476.92"/>
</g>
<!-- b4&#45;&gt;n21 -->
<g id="edge27" class="edge"><title>b4&#45;&gt;n21</title>
<path fill="none" stroke="#fed37f" d="M1128.62,-429.261C1111.92,-432.426 946.83,-463.706 840.232,-483.903"/>
<polygon fill="#fed37f" stroke="#fed37f" points="839.279,-480.522 830.106,-485.822 840.583,-487.399 839.279,-480.522"/>
</g>
<!-- b5&#45;&gt;n20 -->
<g id="edge29" class="edge"><title>b5&#45;&gt;n20</title>
<path fill="none" stroke="#fed37f" d="M1593.13,-429.809C1593.87,-434.194 1597.43,-455.6 1600.47,-473.806"/>
<polygon fill="#fed37f" stroke="#fed37f" points="1597.03,-474.443 1602.12,-483.731 1603.93,-473.292 1597.03,-474.443"/>
</g>
<!-- b6&#45;&gt;n4 -->
<g id="edge31" class="edge"><title>b6&#45;&gt;n4</title>
<path fill="none" stroke="#fed37f" d="M1925,-897.972C1925,-901.8 1925,-916.267 1925,-929.406"/>
<polygon fill="#fed37f" stroke="#fed37f" points="1921.5,-929.431 1925,-939.431 1928.5,-929.431 1921.5,-929.431"/>
</g>
<!-- b7&#45;&gt;n21 -->
<g id="edge33" class="edge"><title>b7&#45;&gt;n21</title>
<path fill="none" stroke="#fed37f" d="M579.098,-429.46C588.306,-433.314 653.462,-460.589 700.593,-480.318"/>
<polygon fill="#fed37f" stroke="#fed37f" points="699.477,-483.645 710.053,-484.278 702.18,-477.188 699.477,-483.645"/>
</g>
<!-- b8&#45;&gt;n20 -->
<g id="edge35" class="edge"><title>b8&#45;&gt;n20</title>
<path fill="none" stroke="#fed37f" d="M1619.83,-429.809C1618.92,-434.194 1614.46,-455.6 1610.67,-473.806"/>
<polygon fill="#fed37f" stroke="#fed37f" points="1607.21,-473.228 1608.6,-483.731 1614.06,-474.655 1607.21,-473.228"/>
</g>
<!-- b9&#45;&gt;n20 -->
<g id="edge37" class="edge"><title>b9&#45;&gt;n20</title>
<path fill="none" stroke="#fed37f" d="M1642.62,-429.933C1640.86,-434.171 1633.39,-451.995 1626,-466 1624.45,-468.946 1622.75,-471.989 1621.03,-474.996"/>
<polygon fill="#fed37f" stroke="#fed37f" points="1617.92,-473.378 1615.85,-483.769 1623.95,-476.936 1617.92,-473.378"/>
</g>
<!-- b10&#45;&gt;n21 -->
<g id="edge39" class="edge"><title>b10&#45;&gt;n21</title>
<path fill="none" stroke="#fed37f" d="M660.022,-429.809C665.961,-434.507 696.594,-458.745 720.488,-477.65"/>
<polygon fill="#fed37f" stroke="#fed37f" points="718.593,-480.614 728.607,-484.074 722.937,-475.124 718.593,-480.614"/>
</g>
<!-- b11&#45;&gt;n3 -->
<g id="edge45" class="edge"><title>b11&#45;&gt;n3</title>
<path fill="none" stroke="#8b0000" d="M1840.43,-671.941C1838.85,-674.544 1834.24,-682.044 1830,-688 1821.98,-699.26 1812.57,-711.405 1804.6,-721.411"/>
<polygon fill="#8b0000" stroke="#8b0000" points="1801.84,-719.258 1798.31,-729.246 1807.3,-723.641 1801.84,-719.258"/>
</g>
<!-- ann13 -->
<g id="node45" class="node"><title>ann13</title>
<polygon fill="none" stroke="gray" points="1945.5,-604 1766.5,-604 1766.5,-568 1951.5,-568 1951.5,-598 1945.5,-604"/>
<polyline fill="none" stroke="gray" points="1945.5,-604 1945.5,-598 "/>
<polyline fill="none" stroke="gray" points="1951.5,-598 1945.5,-598 "/>
<g id="a_node45_31"><a xlink:href="http://www.w3.org/ns/prov#time" xlink:title="&lt;TABLE&gt;">
<text text-anchor="start" x="1777" y="-583.5" font-family="Times,serif" font-size="10.00">prov:time</text>
</a>
</g>
<text text-anchor="start" x="1820" y="-583.5" font-family="Times,serif" font-size="10.00">2024&#45;09&#45;27T07:00:00+00:00</text>
</g>
<!-- ann13&#45;&gt;b11 -->
<g id="edge46" class="edge"><title>ann13&#45;&gt;b11</title>
<path fill="none" stroke="gray" stroke-dasharray="5,2" d="M1855.18,-604.39C1850.39,-626.204 1842.64,-661.544 1841.22,-667.978"/>
</g>
</g>
</svg>
